<svg width="24" height="24" viewBox="0 0 24 24" fill="none" xmlns="http://www.w3.org/2000/svg">
<g clip-path="url(#clip0_0_156)">
<path d="M23 1H1V8.33348H23V1Z" fill="#464655"/>
<path d="M23 15.6665H1V23H23V15.6665Z" fill="#73AF00"/>
<path d="M23 8.3335H1V15.667H23V8.3335Z" fill="#F5F5F5"/>
<path d="M1 23L11.4983 12.3001C11.6484 12.1467 11.6484 11.8533 11.4983 11.6999L1 1V23Z" fill="#FF4B55"/>
<path d="M14.6386 11.9605C14.6386 10.6399 15.5011 9.52118 16.6934 9.13592C16.7619 9.11379 16.753 9.0135 16.6813 9.00646C16.4524 8.98394 16.2159 8.98746 15.9744 9.02137C14.5739 9.21791 13.4935 10.4023 13.426 11.8148C13.3445 13.5204 14.7031 14.9287 16.3908 14.9287C16.4884 14.9287 16.5849 14.9239 16.68 14.9146C16.752 14.9075 16.7614 14.8069 16.6926 14.7847C15.5008 14.3992 14.6386 13.2807 14.6386 11.9605Z" fill="#FF4B55"/>
<path d="M17.1588 10.0105L16.7689 11.1799L15.5362 11.1894C15.3766 11.1906 15.3104 11.3943 15.4388 11.4891L16.4304 12.2214L16.0586 13.3966C16.0105 13.5488 16.1837 13.6746 16.3136 13.5819L17.3164 12.8651L18.3192 13.5819C18.4491 13.6747 18.6223 13.5488 18.5742 13.3966L18.2024 12.2214L19.194 11.4891C19.3224 11.3943 19.2562 11.1906 19.0966 11.1894L17.864 11.1799L17.474 10.0105C17.4235 9.85913 17.2094 9.85913 17.1588 10.0105Z" fill="#FF4B55"/>
</g>
<defs>
<clipPath id="clip0_0_156">
<rect x="1" y="1" width="22" height="22" rx="11" fill="white"/>
</clipPath>
</defs>
</svg>
